<svg width="159" height="53" viewBox="0 0 159 53" fill="none" xmlns="http://www.w3.org/2000/svg">
<path d="M18.1348 3.61878C18.2889 3.09103 18.5972 0.829301 18.366 0H22.1429L38.7151 52.9246H34.9382L29.4655 35.4339L29.2343 34.6799L19.2139 2.71408L9.81013 34.6799L9.34765 36.4139C7.42065 42.8976 5.10825 50.7383 6.41861 52.623V53H1.63965V52.623C3.56665 50.9644 5.57073 46.1394 8.34561 36.7909L18.1348 3.61878Z" fill="white"/>
<path d="M27.7329 16.2121L21.8986 25.1852L18.6218 20.5101L4.47563 0H0L18.6218 26.9949V52.9342H22.3782V25.8639L28.2125 16.9661C34.0468 8.06832 38.5224 2.71458 41 0.377024V0H36.0448V0.377024C35.8051 3.77025 31.729 10.0289 28.4522 15.081L27.7329 16.2121Z" fill="white"/>
<path d="M63.5692 7.75228C63.9223 7.10625 64.2871 6.43439 64.6637 5.73669C65.0639 5.01314 65.4169 4.31543 65.7229 3.64357C66.0525 2.97171 66.3231 2.3386 66.535 1.74426C66.7704 1.14992 66.8998 0.633103 66.9234 0.193807V0H69.1124V0.193807C68.571 0.788148 67.8178 1.78302 66.8527 3.17843C65.8877 4.57384 64.7579 6.42147 63.4633 8.72131L60.8859 13.2952V27.2105H59.2265V13.8766L51 0H52.9772L59.2265 10.5431L60.6741 12.9463L63.2514 8.3337L63.5692 7.75228Z" fill="white"/>
<path d="M61.0164 27.2105L69.1124 52.8727H67.2672L64.5937 44.3918H54.8785L54.7656 44.867C54.5396 45.6469 54.3011 46.4511 54.0501 47.2797C53.8242 48.1083 53.6233 48.8881 53.4476 49.6193C53.297 50.3504 53.1966 50.9962 53.1464 51.5567C53.1213 52.1172 53.184 52.5072 53.3347 52.7265V52.9093H51V52.7265C51.477 52.3122 51.9665 51.508 52.4686 50.3138C52.9958 49.0953 53.5982 47.3406 54.276 45.0498L59.0583 28.9652C59.0834 28.8921 59.1085 28.7824 59.1336 28.6362C59.1587 28.49 59.1713 28.3315 59.1713 28.1609C59.1964 27.966 59.2089 27.7832 59.2089 27.6126C59.2089 27.442 59.1964 27.308 59.1713 27.2105H61.0164ZM64.4807 44.0262L59.5855 28.5265L54.9915 44.0262H64.4807Z" fill="white"/>
<path d="M83.723 1.36052C85.1921 1.36052 86.5707 1.64271 87.8587 2.20707C89.1668 2.77144 90.3039 3.53736 91.2698 4.50485C92.2358 5.47233 93.0006 6.61114 93.5641 7.92128C94.1276 9.21126 94.4093 10.5919 94.4093 12.0633C94.4093 13.5347 94.1276 14.9255 93.5641 16.2356C93.0006 17.5256 92.2358 18.6543 91.2698 19.6218C90.3039 20.5893 89.1668 21.3552 87.8587 21.9196C86.5707 22.4839 85.1921 22.7661 83.723 22.7661C82.2338 22.7661 80.8351 22.4839 79.527 21.9196C78.239 21.3552 77.112 20.5893 76.146 19.6218C75.18 18.6543 74.4153 17.5256 73.8518 16.2356C73.3084 14.9255 73.0367 13.5347 73.0367 12.0633C73.0367 10.5919 73.3084 9.21126 73.8518 7.92128C74.4153 6.61114 75.18 5.47233 76.146 4.50485C77.112 3.53736 78.239 2.77144 79.527 2.20707C80.8351 1.64271 82.2338 1.36052 83.723 1.36052ZM83.723 1.6931C82.3344 1.6931 81.0766 1.99544 79.9496 2.60011C78.8226 3.18463 77.8667 3.97072 77.0818 4.95836C76.297 5.92584 75.6831 7.03442 75.2404 8.28408C74.8178 9.51359 74.6065 10.7733 74.6065 12.0633C74.6065 13.3533 74.8178 14.6231 75.2404 15.8728C75.6831 17.1023 76.297 18.2109 77.0818 19.1985C77.8667 20.166 78.8226 20.9521 79.9496 21.5568C81.0766 22.1413 82.3344 22.4335 83.723 22.4335C85.1116 22.4335 86.3594 22.1413 87.4663 21.5568C88.5932 20.9521 89.5492 20.166 90.334 19.1985C91.139 18.2109 91.7528 17.1023 92.1755 15.8728C92.5981 14.6231 92.8094 13.3533 92.8094 12.0633C92.8094 10.7733 92.5981 9.51359 92.1755 8.28408C91.7528 7.03442 91.139 5.92584 90.334 4.95836C89.5492 3.97072 88.5932 3.18463 87.4663 2.60011C86.3594 1.99544 85.1116 1.6931 83.723 1.6931Z" fill="white"/>
<path d="M110.396 6.01654C110.335 4.96843 110.225 4.13196 110.064 3.50713C109.923 2.86214 109.772 2.22723 109.611 1.60239V1.45123H111.513V1.60239C111.352 2.22723 111.201 2.86214 111.06 3.50713C110.919 4.13196 110.808 4.96843 110.728 6.01654V13.9076C110.728 15.1573 110.627 16.3364 110.426 17.445C110.225 18.5535 109.863 19.5311 109.339 20.3776C108.816 21.204 108.092 21.8591 107.166 22.3428C106.24 22.8266 105.043 23.0584 103.574 23.0382C102.165 23.0181 100.987 22.746 100.042 22.2219C99.1159 21.6777 98.3612 20.9622 97.7776 20.0753C97.2141 19.1884 96.8116 18.1706 96.5701 17.0217C96.3286 15.8526 96.2078 14.613 96.2078 13.3029V1.45123H97.6266V13.3029C97.6266 14.3712 97.687 15.4394 97.8078 16.5077C97.9486 17.576 98.2304 18.5434 98.653 19.4102C99.0756 20.2769 99.6693 20.9924 100.434 21.5568C101.219 22.101 102.265 22.3832 103.574 22.4033C104.821 22.4033 105.878 22.2017 106.743 21.7986C107.609 21.3754 108.313 20.7908 108.856 20.0451C109.4 19.2791 109.792 18.3822 110.034 17.3542C110.275 16.3061 110.396 15.1573 110.396 13.9076V6.01654Z" fill="white"/>
<path d="M115.388 17.4752C115.167 18.3217 115.157 19.0574 115.358 19.6823C115.559 20.3071 115.891 20.8311 116.354 21.2544C116.837 21.6575 117.411 21.97 118.075 22.1917C118.759 22.3932 119.464 22.5041 120.188 22.5242C120.933 22.5242 121.667 22.4436 122.392 22.2824C123.116 22.101 123.76 21.8289 124.324 21.4661C124.907 21.1033 125.37 20.6497 125.712 20.1055C126.054 19.5613 126.215 18.9365 126.195 18.231C126.155 17.1829 125.833 16.3061 125.229 15.6007C124.626 14.8952 123.871 14.2704 122.965 13.7262C122.06 13.182 121.084 12.6781 120.037 12.2145C119.011 11.7307 118.045 11.2168 117.139 10.6726C116.234 10.1082 115.469 9.46321 114.845 8.73759C114.221 8.01198 113.879 7.11504 113.819 6.04678C113.778 5.38163 113.909 4.74672 114.211 4.14204C114.533 3.53736 114.976 3.01331 115.539 2.56988C116.123 2.12645 116.827 1.7838 117.652 1.54193C118.477 1.2799 119.393 1.16904 120.399 1.20935C121.084 1.22951 121.708 1.31013 122.271 1.45123C122.835 1.57216 123.358 1.75356 123.841 1.99544C124.324 2.23731 124.787 2.54972 125.229 2.93269C125.672 3.29549 126.125 3.72884 126.588 4.23274L125.592 5.29093L125.471 5.16999C125.431 4.66609 125.229 4.19243 124.867 3.749C124.505 3.30557 124.072 2.92261 123.569 2.60011C123.066 2.27762 122.523 2.02567 121.939 1.84427C121.375 1.64271 120.862 1.53185 120.399 1.51169C119.554 1.49154 118.789 1.59232 118.105 1.81403C117.421 2.03575 116.847 2.34816 116.384 2.75128C115.942 3.1544 115.61 3.62806 115.388 4.17227C115.187 4.71648 115.137 5.28085 115.237 5.86537C115.398 6.79254 115.821 7.57863 116.505 8.22362C117.21 8.84845 118.035 9.41282 118.981 9.91671C119.926 10.4206 120.913 10.9144 121.939 11.3982C122.985 11.8618 123.931 12.406 124.777 13.0308C125.642 13.6355 126.326 14.3611 126.829 15.2076C127.353 16.0542 127.554 17.1023 127.433 18.352C127.353 19.138 127.091 19.8234 126.648 20.4079C126.205 20.9924 125.632 21.4761 124.927 21.8591C124.243 22.2219 123.479 22.494 122.633 22.6754C121.788 22.8367 120.923 22.8971 120.037 22.8568C119.172 22.8165 118.327 22.6653 117.501 22.4033C116.676 22.1413 115.952 21.7684 115.328 21.2847C114.704 20.8009 114.211 20.1962 113.849 19.4706C113.487 18.745 113.326 17.8985 113.366 16.931L115.388 17.4752Z" fill="white"/>
<path d="M143.472 6.01654C143.412 4.96843 143.301 4.13196 143.14 3.50713C142.999 2.86214 142.848 2.22723 142.687 1.60239V1.45123H144.589V1.60239C144.428 2.22723 144.277 2.86214 144.136 3.50713C143.995 4.13196 143.885 4.96843 143.804 6.01654V13.9076C143.804 15.1573 143.704 16.3364 143.502 17.445C143.301 18.5535 142.939 19.5311 142.416 20.3776C141.892 21.204 141.168 21.8591 140.242 22.3428C139.316 22.8266 138.119 23.0584 136.65 23.0382C135.241 23.0181 134.064 22.746 133.118 22.2219C132.192 21.6777 131.438 20.9622 130.854 20.0753C130.29 19.1884 129.888 18.1706 129.646 17.0217C129.405 15.8526 129.284 14.613 129.284 13.3029V1.45123H130.703V13.3029C130.703 14.3712 130.763 15.4394 130.884 16.5077C131.025 17.576 131.307 18.5434 131.729 19.4102C132.152 20.2769 132.746 20.9924 133.51 21.5568C134.295 22.101 135.342 22.3832 136.65 22.4033C137.898 22.4033 138.954 22.2017 139.82 21.7986C140.685 21.3754 141.389 20.7908 141.933 20.0451C142.476 19.2791 142.868 18.3822 143.11 17.3542C143.351 16.3061 143.472 15.1573 143.472 13.9076V6.01654Z" fill="white"/>
<path d="M150.517 11.247C151.564 11.1865 152.399 11.0858 153.023 10.9447C153.667 10.7834 154.301 10.6222 154.925 10.4609H155.106V12.3657H154.925C154.301 12.2044 153.667 12.0532 153.023 11.9122C152.399 11.7711 151.564 11.6602 150.517 11.5796H147.831V22.6754H146.412V1.45123H158.728L159 3.02339L158.849 3.05362C158.326 2.73113 157.682 2.48926 156.917 2.32801C156.172 2.1466 155.327 2.01559 154.381 1.93497C153.456 1.85434 152.439 1.80395 151.332 1.7838C150.226 1.76364 149.058 1.75356 147.831 1.75356V11.247H150.517Z" fill="white"/>
<path d="M77.6554 52.8791H73.0367V31.6549H76.4781C77.2428 31.6549 78.0579 31.6952 78.9232 31.7758C79.8087 31.8363 80.6137 32.0177 81.3382 32.32C82.0829 32.6022 82.6967 33.0356 83.1797 33.6201C83.6627 34.1844 83.9042 34.9705 83.9042 35.9783C83.9042 36.6233 83.8438 37.1776 83.723 37.6412C83.6224 38.0846 83.4715 38.4676 83.2702 38.7901C83.069 39.1126 82.8275 39.3947 82.5457 39.6366C82.2841 39.8583 81.9923 40.0599 81.6703 40.2413C81.3885 40.4025 81.0967 40.5336 80.7949 40.6343C80.493 40.7351 80.181 40.8258 79.8591 40.9064C80.8854 40.9064 81.8414 40.9871 82.7268 41.1483C83.6123 41.2894 84.3771 41.5817 85.0211 42.0251C85.6852 42.4685 86.1984 43.0833 86.5606 43.8694C86.943 44.6353 87.1342 45.6431 87.1342 46.8928C87.1342 48.1424 86.8726 49.1603 86.3493 49.9464C85.8261 50.7123 85.1217 51.317 84.2362 51.7604C83.3708 52.2038 82.3646 52.5062 81.2175 52.6674C80.0704 52.8085 78.883 52.8791 77.6554 52.8791ZM77.6554 52.5767C77.8566 52.5767 78.1988 52.5666 78.6817 52.5465C79.1647 52.5263 79.6981 52.4659 80.2817 52.3651C80.8854 52.2643 81.5093 52.1031 82.1533 51.8813C82.7973 51.6596 83.3809 51.3371 83.9042 50.9139C84.4274 50.4906 84.8601 49.9565 85.2022 49.3115C85.5443 48.6463 85.7154 47.8401 85.7154 46.8928C85.7154 45.502 85.484 44.4237 85.0211 43.6577C84.5783 42.8918 83.9746 42.3375 83.2098 41.9949C82.4652 41.6321 81.6099 41.4305 80.6439 41.3902C79.6779 41.3297 78.6817 41.2995 77.6554 41.2995H74.4555V52.5767H77.6554ZM74.4555 40.9669H77.4139C77.9975 40.9468 78.6012 40.8964 79.2251 40.8157C79.849 40.715 80.4125 40.4832 80.9156 40.1204C81.3584 39.7777 81.7105 39.304 81.9722 38.6994C82.2338 38.0947 82.3747 37.2985 82.3948 36.3109C82.4149 35.545 82.3042 34.9 82.0627 34.3759C81.8413 33.8519 81.5294 33.4286 81.1269 33.1061C80.7244 32.7836 80.2515 32.5417 79.7081 32.3805C79.1647 32.2192 78.5912 32.1084 77.9874 32.0479C77.4038 31.9874 76.8001 31.9572 76.1762 31.9572C75.5725 31.9572 74.9989 31.9572 74.4555 31.9572V40.9669Z" fill="white"/>
<path d="M95.2046 41.4809C96.2309 41.4204 97.0661 41.3196 97.7101 41.1785C98.3541 41.0173 98.988 40.8561 99.6119 40.6948H99.7629V42.5995H99.6119C98.988 42.4383 98.3541 42.2871 97.7101 42.146C97.0661 42.0049 96.2309 41.8941 95.2046 41.8135H92.4877V52.607C93.7355 52.607 94.9128 52.5969 96.0196 52.5767C97.1265 52.5566 98.1428 52.5062 99.0685 52.4256C100.014 52.3449 100.86 52.224 101.604 52.0627C102.349 51.8813 102.983 51.6294 103.506 51.3069L103.657 51.3371L103.385 52.9093H91.0689V31.6851H103.385L103.657 33.2573L103.506 33.2875C102.983 32.965 102.349 32.7231 101.604 32.5619C100.86 32.3805 100.014 32.2495 99.0685 32.1688C98.1428 32.0882 97.1265 32.0378 96.0196 32.0177C94.9128 31.9975 93.7355 31.9874 92.4877 31.9874V41.4809H95.2046Z" fill="white"/>
<path d="M111.704 41.4809C112.73 41.4204 113.565 41.3196 114.209 41.1785C114.853 41.0173 115.487 40.8561 116.111 40.6948H116.262V42.5995H116.111C115.487 42.4383 114.853 42.2871 114.209 42.146C113.565 42.0049 112.73 41.8941 111.704 41.8135H108.987V52.607C110.235 52.607 111.412 52.5969 112.519 52.5767C113.626 52.5566 114.642 52.5062 115.568 52.4256C116.514 52.3449 117.359 52.224 118.104 52.0627C118.848 51.8813 119.482 51.6294 120.005 51.3069L120.156 51.3371L119.885 52.9093H107.568V31.6851H119.885L120.156 33.2573L120.005 33.2875C119.482 32.965 118.848 32.7231 118.104 32.5619C117.359 32.3805 116.514 32.2495 115.568 32.1688C114.642 32.0882 113.626 32.0378 112.519 32.0177C111.412 31.9975 110.235 31.9874 108.987 31.9874V41.4809H111.704Z" fill="white"/>
<path d="M131.222 41.8135C132.51 42.0352 133.546 42.4585 134.331 43.0833C135.116 43.688 135.74 44.3934 136.203 45.1997C136.686 46.0059 137.068 46.8524 137.35 47.7393C137.652 48.606 137.964 49.4122 138.286 50.158C138.628 50.8836 139.04 51.4883 139.523 51.972C140.006 52.4356 140.67 52.6674 141.516 52.6674V53C140.449 53 139.564 52.8488 138.859 52.5465C138.175 52.2441 137.601 51.841 137.139 51.3371C136.696 50.8332 136.334 50.2588 136.052 49.6138C135.79 48.9688 135.549 48.3137 135.327 47.6486C135.106 46.9633 134.874 46.2881 134.633 45.6229C134.391 44.9578 134.08 44.3632 133.697 43.8391C133.335 43.2949 132.862 42.8414 132.278 42.4786C131.715 42.1158 130.98 41.9042 130.075 41.8437C129.954 41.8437 129.833 41.8437 129.712 41.8437C129.612 41.8235 129.501 41.8135 129.38 41.8135H125.486V52.9093H124.067V31.6851H130.527C131.312 31.6851 132.137 31.7153 133.003 31.7758C133.868 31.8363 134.673 32.0278 135.418 32.3503C136.162 32.6727 136.776 33.1867 137.259 33.8922C137.742 34.5976 137.984 35.5853 137.984 36.8551C137.984 37.9032 137.772 38.7498 137.35 39.3947C136.947 40.0196 136.414 40.5134 135.75 40.8762C135.106 41.2189 134.381 41.4607 133.576 41.6018C132.771 41.7228 131.987 41.7933 131.222 41.8135ZM130.527 41.5111C131.232 41.491 131.936 41.4507 132.641 41.3902C133.345 41.3297 133.979 41.1584 134.542 40.8762C135.126 40.5739 135.589 40.1103 135.931 39.4855C136.293 38.8606 136.474 37.9838 136.474 36.8551C136.474 35.7264 136.293 34.8395 135.931 34.1945C135.569 33.5294 135.096 33.0356 134.512 32.7131C133.949 32.3906 133.315 32.189 132.61 32.1084C131.906 32.0278 131.212 31.9874 130.527 31.9874H125.486V41.5111H130.527Z" fill="white"/>
</svg>
